<svg width="100" height="100" viewBox="0 0 100 100" fill="none" xmlns="http://www.w3.org/2000/svg">
<g clip-path="url(#clip0_279_4)">
<path d="M16.6667 45.8333H45.8333V16.6667H16.6667V45.8333ZM25 25H37.5V37.5H25V25ZM83.3333 16.6667H54.1667V45.8333H83.3333V16.6667ZM75 37.5H62.5V25H75V37.5ZM16.6667 83.3333H45.8333V54.1667H16.6667V83.3333ZM25 62.5H37.5V75H25V62.5ZM12.5 91.6667H29.1667V100H12.5C5.60833 100 0 94.3917 0 87.5V70.8333H8.33333V87.5C8.33333 89.7958 10.2042 91.6667 12.5 91.6667ZM91.6667 70.8333H100V87.5C100 94.3917 94.3917 100 87.5 100H70.8333V91.6667H87.5C89.7958 91.6667 91.6667 89.7958 91.6667 87.5V70.8333ZM100 12.5V29.1667H91.6667V12.5C91.6667 10.2042 89.7958 8.33333 87.5 8.33333H70.8333V0H87.5C94.3917 0 100 5.60833 100 12.5ZM8.33333 29.1667H0V12.5C0 5.60833 5.60833 0 12.5 0H29.1667V8.33333H12.5C10.2042 8.33333 8.33333 10.2042 8.33333 12.5V29.1667ZM54.1667 70.8333H66.6667V83.3333H54.1667V70.8333ZM70.8333 66.6667V54.1667H83.3333V66.6667H70.8333ZM54.1667 54.1667H66.6667V66.6667H54.1667V54.1667Z" fill="white"/>
</g>
<defs>
<clipPath id="clip0_279_4">
<rect width="100" height="100" fill="white"/>
</clipPath>
</defs>
</svg>
