<svg width="120" height="120" viewBox="0 0 120 120" fill="none" xmlns="http://www.w3.org/2000/svg">
<circle cx="60" cy="60" r="57" fill="#00C853" fill-opacity="0.3" stroke="#00C853" stroke-width="6"/>
<g clip-path="url(#clip0_95_1518)">
<path d="M71.4594 50.1013L75.2034 53.9013L59.7554 69.12C58.7234 70.152 57.3661 70.6667 56.0034 70.6667C54.6407 70.6667 53.2701 70.1467 52.2274 69.1067L44.8087 61.9173L48.5234 58.0853L55.9714 65.304L71.4594 50.1013ZM91.9981 60C91.9981 77.6453 77.6434 92 59.9981 92C42.3527 92 27.998 77.6453 27.998 60C27.998 42.3547 42.3527 28 59.9981 28C77.6434 28 91.9981 42.3547 91.9981 60ZM86.6647 60C86.6647 45.296 74.7021 33.3333 59.9981 33.3333C45.2941 33.3333 33.3314 45.296 33.3314 60C33.3314 74.704 45.2941 86.6667 59.9981 86.6667C74.7021 86.6667 86.6647 74.704 86.6647 60Z" fill="#00C853"/>
</g>
<defs>
<clipPath id="clip0_95_1518">
<rect width="64" height="64" fill="white" transform="translate(27.998 28)"/>
</clipPath>
</defs>
</svg>
